<mxfile host="app.diagrams.net" modified="2023-04-08T08:19:52.878Z" agent="5.0 (Windows NT 10.0; Win64; x64) AppleWebKit/537.36 (KHTML, like Gecko) Chrome/111.0.0.0 Safari/537.36 OPR/97.0.0.0" etag="yizFpgA7h39d2SCWR0yn" version="21.0.8" type="github">
  <diagram name="Página-1" id="aB3mML6NW_6tPtJv0DHn">
    <mxGraphModel dx="2220" dy="727" grid="1" gridSize="10" guides="1" tooltips="1" connect="1" arrows="1" fold="1" page="1" pageScale="1" pageWidth="827" pageHeight="1169" math="0" shadow="0">
      <root>
        <mxCell id="0" />
        <mxCell id="1" parent="0" />
        <mxCell id="DMcoDkMliQG5y81pH3MF-3" style="edgeStyle=orthogonalEdgeStyle;rounded=0;orthogonalLoop=1;jettySize=auto;html=1;exitX=0.5;exitY=1;exitDx=0;exitDy=0;entryX=0.5;entryY=0;entryDx=0;entryDy=0;" edge="1" parent="1" source="DMcoDkMliQG5y81pH3MF-1">
          <mxGeometry relative="1" as="geometry">
            <mxPoint x="60" y="140" as="targetPoint" />
          </mxGeometry>
        </mxCell>
        <mxCell id="DMcoDkMliQG5y81pH3MF-1" value="Início" style="rounded=1;whiteSpace=wrap;html=1;" vertex="1" parent="1">
          <mxGeometry y="30" width="120" height="60" as="geometry" />
        </mxCell>
        <mxCell id="DMcoDkMliQG5y81pH3MF-8" value="Não" style="edgeStyle=orthogonalEdgeStyle;rounded=0;orthogonalLoop=1;jettySize=auto;html=1;exitX=0;exitY=0.5;exitDx=0;exitDy=0;entryX=1;entryY=0.5;entryDx=0;entryDy=0;" edge="1" parent="1" source="DMcoDkMliQG5y81pH3MF-5" target="DMcoDkMliQG5y81pH3MF-6">
          <mxGeometry relative="1" as="geometry" />
        </mxCell>
        <mxCell id="DMcoDkMliQG5y81pH3MF-9" value="Sim" style="edgeStyle=orthogonalEdgeStyle;rounded=0;orthogonalLoop=1;jettySize=auto;html=1;exitX=1;exitY=0.5;exitDx=0;exitDy=0;entryX=0;entryY=0.5;entryDx=0;entryDy=0;" edge="1" parent="1" source="DMcoDkMliQG5y81pH3MF-5" target="DMcoDkMliQG5y81pH3MF-7">
          <mxGeometry relative="1" as="geometry" />
        </mxCell>
        <mxCell id="DMcoDkMliQG5y81pH3MF-5" value="Usuário cadastrado?" style="rhombus;whiteSpace=wrap;html=1;" vertex="1" parent="1">
          <mxGeometry x="20" y="140" width="80" height="80" as="geometry" />
        </mxCell>
        <mxCell id="DMcoDkMliQG5y81pH3MF-6" value="Solicitar acesso ao responsável" style="rounded=1;whiteSpace=wrap;html=1;" vertex="1" parent="1">
          <mxGeometry x="-170" y="150" width="120" height="60" as="geometry" />
        </mxCell>
        <mxCell id="DMcoDkMliQG5y81pH3MF-11" style="edgeStyle=orthogonalEdgeStyle;rounded=0;orthogonalLoop=1;jettySize=auto;html=1;exitX=1;exitY=0.5;exitDx=0;exitDy=0;" edge="1" parent="1" source="DMcoDkMliQG5y81pH3MF-7" target="DMcoDkMliQG5y81pH3MF-10">
          <mxGeometry relative="1" as="geometry" />
        </mxCell>
        <mxCell id="DMcoDkMliQG5y81pH3MF-7" value="Efetuar Login" style="rounded=1;whiteSpace=wrap;html=1;" vertex="1" parent="1">
          <mxGeometry x="160" y="150" width="120" height="60" as="geometry" />
        </mxCell>
        <mxCell id="DMcoDkMliQG5y81pH3MF-12" value="Não" style="edgeStyle=orthogonalEdgeStyle;rounded=0;orthogonalLoop=1;jettySize=auto;html=1;exitX=0.5;exitY=0;exitDx=0;exitDy=0;entryX=0.5;entryY=0;entryDx=0;entryDy=0;" edge="1" parent="1" source="DMcoDkMliQG5y81pH3MF-10" target="DMcoDkMliQG5y81pH3MF-7">
          <mxGeometry relative="1" as="geometry" />
        </mxCell>
        <mxCell id="DMcoDkMliQG5y81pH3MF-15" value="Sim" style="edgeStyle=orthogonalEdgeStyle;rounded=0;orthogonalLoop=1;jettySize=auto;html=1;exitX=0.5;exitY=1;exitDx=0;exitDy=0;entryX=0.5;entryY=0;entryDx=0;entryDy=0;" edge="1" parent="1" source="DMcoDkMliQG5y81pH3MF-10" target="DMcoDkMliQG5y81pH3MF-14">
          <mxGeometry relative="1" as="geometry" />
        </mxCell>
        <mxCell id="DMcoDkMliQG5y81pH3MF-10" value="Login válido?" style="rhombus;whiteSpace=wrap;html=1;" vertex="1" parent="1">
          <mxGeometry x="330" y="140" width="80" height="80" as="geometry" />
        </mxCell>
        <mxCell id="DMcoDkMliQG5y81pH3MF-20" style="edgeStyle=orthogonalEdgeStyle;rounded=0;orthogonalLoop=1;jettySize=auto;html=1;exitX=0;exitY=0.5;exitDx=0;exitDy=0;entryX=0.5;entryY=0;entryDx=0;entryDy=0;" edge="1" parent="1" source="DMcoDkMliQG5y81pH3MF-14" target="DMcoDkMliQG5y81pH3MF-16">
          <mxGeometry relative="1" as="geometry" />
        </mxCell>
        <mxCell id="DMcoDkMliQG5y81pH3MF-22" style="edgeStyle=orthogonalEdgeStyle;rounded=0;orthogonalLoop=1;jettySize=auto;html=1;exitX=1;exitY=0.5;exitDx=0;exitDy=0;entryX=0.567;entryY=0.017;entryDx=0;entryDy=0;entryPerimeter=0;" edge="1" parent="1" source="DMcoDkMliQG5y81pH3MF-14" target="DMcoDkMliQG5y81pH3MF-18">
          <mxGeometry relative="1" as="geometry" />
        </mxCell>
        <mxCell id="DMcoDkMliQG5y81pH3MF-23" style="edgeStyle=orthogonalEdgeStyle;rounded=0;orthogonalLoop=1;jettySize=auto;html=1;exitX=1;exitY=0.5;exitDx=0;exitDy=0;entryX=0.5;entryY=0;entryDx=0;entryDy=0;" edge="1" parent="1" source="DMcoDkMliQG5y81pH3MF-14" target="DMcoDkMliQG5y81pH3MF-19">
          <mxGeometry relative="1" as="geometry" />
        </mxCell>
        <mxCell id="DMcoDkMliQG5y81pH3MF-14" value="Acessar página do usuário" style="rounded=1;whiteSpace=wrap;html=1;" vertex="1" parent="1">
          <mxGeometry x="310" y="280" width="120" height="60" as="geometry" />
        </mxCell>
        <mxCell id="DMcoDkMliQG5y81pH3MF-42" style="edgeStyle=orthogonalEdgeStyle;rounded=0;orthogonalLoop=1;jettySize=auto;html=1;exitX=0.5;exitY=1;exitDx=0;exitDy=0;entryX=0.5;entryY=0;entryDx=0;entryDy=0;" edge="1" parent="1" source="DMcoDkMliQG5y81pH3MF-16" target="DMcoDkMliQG5y81pH3MF-41">
          <mxGeometry relative="1" as="geometry" />
        </mxCell>
        <mxCell id="DMcoDkMliQG5y81pH3MF-16" value="Criar prontuários" style="rounded=1;whiteSpace=wrap;html=1;" vertex="1" parent="1">
          <mxGeometry x="-150" y="360" width="120" height="60" as="geometry" />
        </mxCell>
        <mxCell id="DMcoDkMliQG5y81pH3MF-18" value="" style="rounded=1;whiteSpace=wrap;html=1;" vertex="1" parent="1">
          <mxGeometry x="550" y="360" width="120" height="60" as="geometry" />
        </mxCell>
        <mxCell id="DMcoDkMliQG5y81pH3MF-44" style="edgeStyle=orthogonalEdgeStyle;rounded=0;orthogonalLoop=1;jettySize=auto;html=1;exitX=0.5;exitY=1;exitDx=0;exitDy=0;entryX=0.5;entryY=0;entryDx=0;entryDy=0;" edge="1" parent="1" source="DMcoDkMliQG5y81pH3MF-19" target="DMcoDkMliQG5y81pH3MF-43">
          <mxGeometry relative="1" as="geometry" />
        </mxCell>
        <mxCell id="DMcoDkMliQG5y81pH3MF-19" value="Inserir, atualizar e deletar usuários" style="rounded=1;whiteSpace=wrap;html=1;" vertex="1" parent="1">
          <mxGeometry x="880" y="360" width="120" height="60" as="geometry" />
        </mxCell>
        <mxCell id="DMcoDkMliQG5y81pH3MF-26" style="edgeStyle=orthogonalEdgeStyle;rounded=0;orthogonalLoop=1;jettySize=auto;html=1;exitX=0.5;exitY=1;exitDx=0;exitDy=0;entryX=0.5;entryY=0;entryDx=0;entryDy=0;" edge="1" parent="1" source="DMcoDkMliQG5y81pH3MF-24" target="DMcoDkMliQG5y81pH3MF-25">
          <mxGeometry relative="1" as="geometry" />
        </mxCell>
        <mxCell id="DMcoDkMliQG5y81pH3MF-29" value="Sim" style="edgeStyle=orthogonalEdgeStyle;rounded=0;orthogonalLoop=1;jettySize=auto;html=1;exitX=1;exitY=0.5;exitDx=0;exitDy=0;entryX=0.5;entryY=0;entryDx=0;entryDy=0;" edge="1" parent="1" source="DMcoDkMliQG5y81pH3MF-25" target="DMcoDkMliQG5y81pH3MF-27">
          <mxGeometry relative="1" as="geometry" />
        </mxCell>
        <mxCell id="DMcoDkMliQG5y81pH3MF-30" value="Não" style="edgeStyle=orthogonalEdgeStyle;rounded=0;orthogonalLoop=1;jettySize=auto;html=1;exitX=0;exitY=0.5;exitDx=0;exitDy=0;entryX=0.5;entryY=0;entryDx=0;entryDy=0;" edge="1" parent="1" source="DMcoDkMliQG5y81pH3MF-25" target="DMcoDkMliQG5y81pH3MF-28">
          <mxGeometry relative="1" as="geometry" />
        </mxCell>
        <mxCell id="DMcoDkMliQG5y81pH3MF-25" value="O custo está correto?" style="rhombus;whiteSpace=wrap;html=1;" vertex="1" parent="1">
          <mxGeometry x="230" y="450" width="80" height="80" as="geometry" />
        </mxCell>
        <mxCell id="DMcoDkMliQG5y81pH3MF-27" value="Gerar nota para pagamento" style="rounded=1;whiteSpace=wrap;html=1;" vertex="1" parent="1">
          <mxGeometry x="330" y="540" width="120" height="60" as="geometry" />
        </mxCell>
        <mxCell id="DMcoDkMliQG5y81pH3MF-28" value="" style="rounded=1;whiteSpace=wrap;html=1;" vertex="1" parent="1">
          <mxGeometry x="100" y="540" width="120" height="60" as="geometry" />
        </mxCell>
        <mxCell id="DMcoDkMliQG5y81pH3MF-36" value="Gerar alta" style="rounded=1;whiteSpace=wrap;html=1;" vertex="1" parent="1">
          <mxGeometry x="330" y="750" width="120" height="60" as="geometry" />
        </mxCell>
        <mxCell id="DMcoDkMliQG5y81pH3MF-38" value="" style="edgeStyle=orthogonalEdgeStyle;rounded=0;orthogonalLoop=1;jettySize=auto;html=1;exitX=0;exitY=0.5;exitDx=0;exitDy=0;entryX=0.5;entryY=0;entryDx=0;entryDy=0;" edge="1" parent="1" source="DMcoDkMliQG5y81pH3MF-14" target="DMcoDkMliQG5y81pH3MF-24">
          <mxGeometry relative="1" as="geometry">
            <mxPoint x="310" y="310" as="sourcePoint" />
            <mxPoint x="270" y="390" as="targetPoint" />
          </mxGeometry>
        </mxCell>
        <mxCell id="DMcoDkMliQG5y81pH3MF-24" value="Extrair dados dos custos de atendimento" style="rounded=1;whiteSpace=wrap;html=1;" vertex="1" parent="1">
          <mxGeometry x="210" y="360" width="120" height="60" as="geometry" />
        </mxCell>
        <mxCell id="DMcoDkMliQG5y81pH3MF-39" value="" style="edgeStyle=orthogonalEdgeStyle;rounded=0;orthogonalLoop=1;jettySize=auto;html=1;exitX=0.5;exitY=1;exitDx=0;exitDy=0;" edge="1" parent="1" source="DMcoDkMliQG5y81pH3MF-27" target="DMcoDkMliQG5y81pH3MF-33">
          <mxGeometry relative="1" as="geometry">
            <mxPoint x="390" y="720" as="targetPoint" />
            <mxPoint x="390" y="600" as="sourcePoint" />
          </mxGeometry>
        </mxCell>
        <mxCell id="DMcoDkMliQG5y81pH3MF-40" value="Sim" style="edgeStyle=orthogonalEdgeStyle;rounded=0;orthogonalLoop=1;jettySize=auto;html=1;exitX=0.5;exitY=1;exitDx=0;exitDy=0;entryX=0.5;entryY=0;entryDx=0;entryDy=0;" edge="1" parent="1" source="DMcoDkMliQG5y81pH3MF-33" target="DMcoDkMliQG5y81pH3MF-36">
          <mxGeometry relative="1" as="geometry" />
        </mxCell>
        <mxCell id="DMcoDkMliQG5y81pH3MF-33" value="Foi pago?" style="rhombus;whiteSpace=wrap;html=1;" vertex="1" parent="1">
          <mxGeometry x="350" y="630" width="80" height="80" as="geometry" />
        </mxCell>
        <mxCell id="DMcoDkMliQG5y81pH3MF-41" value="Consultar prontuários" style="rounded=1;whiteSpace=wrap;html=1;" vertex="1" parent="1">
          <mxGeometry x="-150" y="460" width="120" height="60" as="geometry" />
        </mxCell>
        <mxCell id="DMcoDkMliQG5y81pH3MF-43" value="Consultar usuários cadastrados" style="rounded=1;whiteSpace=wrap;html=1;" vertex="1" parent="1">
          <mxGeometry x="880" y="460" width="120" height="60" as="geometry" />
        </mxCell>
      </root>
    </mxGraphModel>
  </diagram>
</mxfile>
